<svg width="48" height="48" viewBox="0 0 48 48" fill="none" xmlns="http://www.w3.org/2000/svg">
  <rect width="48" height="48" rx="12" fill="#3b82f6"/>
  <circle cx="24" cy="24" r="14" fill="#fff"/>
  <path d="M24 13C18.477 13 14 17.477 14 23C14 28.523 18.477 33 24 33C29.523 33 34 28.523 34 23C34 17.477 29.523 13 24 13ZM24 31C19.5899 31 16 27.4101 16 23C16 18.5899 19.5899 15 24 15C28.4101 15 32 18.5899 32 23C32 27.4101 28.4101 31 24 31Z" fill="#3b82f6"/>
  <circle cx="24" cy="23" r="5" fill="#3b82f6"/>
</svg>
